<?xml version="1.0" encoding="utf-8"?>
<!-- Generator: Adobe Illustrator 15.1.0, SVG Export Plug-In . SVG Version: 6.00 Build 0)  -->
<!DOCTYPE svg PUBLIC "-//W3C//DTD SVG 1.1//EN" "http://www.w3.org/Graphics/SVG/1.1/DTD/svg11.dtd">
<svg version="1.1" id="Layer_1" xmlns="http://www.w3.org/2000/svg" xmlns:xlink="http://www.w3.org/1999/xlink" x="0px" y="0px"
	 width="63.713px" height="48px" viewBox="0 0 63.713 48" enable-background="new 0 0 63.713 48" xml:space="preserve">
<g>
	<path fill="#B02F25" d="M63.716,43.405c0,2.538-2.057,4.595-4.595,4.595H4.599c-2.538,0-4.598-2.057-4.598-4.595V0h63.714V43.405z"
		/>
	
		<linearGradient id="SVGID_1_" gradientUnits="userSpaceOnUse" x1="340.0876" y1="-295.5815" x2="294.1659" y2="-391.3409" gradientTransform="matrix(1 0 0 -1 -268.0156 -343.3955)">
		<stop  offset="0" style="stop-color:#FFFFFF"/>
		<stop  offset="1" style="stop-color:#B02F25"/>
	</linearGradient>
	<path fill="url(#SVGID_1_)" d="M63.716,43.357C51.85,30.549,35.542,22.378,15.432,22.378c-5.328,0-10.479,0.638-15.434,1.719V48
		h63.713v-4.643H63.716z"/>
	<g>
		<path fill="#FFFFFF" d="M22.441,7.427c9.517,0,17.226,6.801,17.226,16.796c0,9.946-7.661,16.513-17.129,16.513H8.066V7.427H22.441
			z M22.535,34.548c5.517,0,10.273-3.849,10.273-10.325c0-6.473-4.757-10.608-10.367-10.608h-7.758v20.934H22.535z"/>
	</g>
	<path fill="#FFFFFF" d="M41.483,9.188c4.855,0,8.792,3.938,8.792,8.793c0,4.857-3.937,8.792-8.792,8.792
		c-4.859,0-8.795-3.935-8.795-8.792C32.688,13.125,36.624,9.188,41.483,9.188z"/>
	<circle fill="#FFFFFF" cx="52.307" cy="8.1" r="2.682"/>
</g>
</svg>
